<svg width="430" height="100" viewBox="-2 0 372 85.7077453217343"
  xmlns="http://www.w3.org/2000/svg">
  <g id="SvgjsG13323" featurekey="symbolFeature-0" transform="matrix(1.3868690989921837,0,0,1.3868690989921837,-10.321214593953101,-16.543964465711728)" fill="#ffc93c">
    <title xmlns="http://www.w3.org/2000/svg">Chart4</title>
    <desc xmlns="http://www.w3.org/2000/svg">Created with Sketch.</desc>
    <g xmlns="http://www.w3.org/2000/svg" stroke="none" stroke-width="1" fill="none" fill-rule="evenodd">
      <g fill="#fff">
        <path d="M24.5131656,47.4926508 L34.2036224,52.3378792 C35.5163698,52.9942529 37.2133611,52.6575936 38.1636853,51.5488819 L48.3803739,39.6572834 L58.065791,46.1142282 C59.4758559,47.0542714 61.3591803,46.6220007 62.2306109,45.1696165 L73.0053138,27.2117782 L74.1917178,31.0923307 C74.5146627,32.1486358 75.6327657,32.7431417 76.6890707,32.4201968 C77.7453758,32.0972519 78.3398817,30.9791489 78.0169368,29.9228439 L75.3734304,21.276324 C75.0504855,20.2200189 73.9323826,19.625513 72.8760775,19.9484579 L69.3852529,21.01571 C67.6799468,21.5370744 64.2693347,22.5798032 64.2693347,22.5798032 C63.2130296,22.9027481 62.6185237,24.0208511 62.9414686,25.0771561 C63.2644135,26.1334612 64.3825164,26.7279671 65.4388215,26.4050222 L69.5419725,25.2094112 L59.3802791,42.1831519 L49.934209,35.8857718 C48.6398176,35.0228443 46.8506983,35.2676705 45.8363147,36.4511181 L35.4792172,48.5035406 L25.7963776,43.6621208 C24.4782888,43.0030764 22.7938762,43.3339629 21.8363146,44.4511182 L14.1640339,53.4021133 C13.4927071,53.1424153 12.762985,53 12,53 C8.6862915,53 6,55.6862915 6,59 C6,62.3137085 8.6862915,65 12,65 C15.3137085,65 18,62.3137085 18,59 C18,57.9095192 17.7090887,56.8869844 17.2006399,56.0057693 L24.5131656,47.4926508 Z M10,59 C10,57.8954305 10.8954305,57 12,57 C13.1045695,57 14,57.8954305 14,59 C14,60.1045695 13.1045695,61 12,61 C10.8954305,61 10,60.1045695 10,59 L10,59 Z">
        </path>
      </g>
    </g>
  </g>
  <g id="SvgjsG13324" featurekey="nameFeature-0" transform="matrix(2.311390617325681,0,0,2.311390617325681,119.99999779568613,-13.668639392379646)" fill="#fff">
    <path d="M26.16 20.6 l4.96 0 l0 19.4 l-4.96 0 l0 -4.2 l-4.84 0 l0 4.2 l-6.44 0 l0 -19.4 l6.44 0 l0 8.76 l4.84 0 l0 -8.76 z M31.12 10.239999999999998 l0 7.68 l-18.56 0 l0 22.08 l-6.8 0 l0 -22.08 l-5.76 0 l0 -7.68 l31.12 0 z M43.68 31.48 c-0.16 -0.2 -0.36 -0.28 -0.56 -0.28 l-3.16 0 l0 7.32 l-6.84 0 l0 -28.28 l9.24 0 c7.36 0 8.8 1.76 8.8 5.36 l0 7.12 c0 3.12 -2.4 3.64 -4.24 4.16 c1.84 1.12 4.04 1.8 4.04 5.76 l-0.12 7.36 l-6.84 0 l0.08 -7.44 c0 -0.44 -0.12 -0.84 -0.4 -1.08 z M39.959999999999994 23 c0.36 0.12 0.8 0.16 1.36 0.16 c1.96 0 2.6 -0.64 2.6 -2.16 l0 -2.96 c0 -1.52 -0.44 -2.24 -2.6 -2.24 c-0.56 0 -1 0.04 -1.36 0.16 l0 7.04 z M53.16 16.2 l0 -5.96 l14.72 0 l0 5.96 l-3.96 0 l0 16.12 l3.96 0 l0 7.68 l-14.72 0 l0 -7.68 l3.96 0 l0 -16.12 l-3.96 0 z M80.56 34.04 l3.88 -23.8 l4.4 0 l-4.48 29.76 l-9.96 0 l-4.52 -29.76 l7 0 z M90.84 40 l0 -29.76 l17.32 0 l0 8.36 l-10.48 0 l0 3.68 l8.6 0 l0 5.96 l-8.6 0 l0 3.4 l10.48 0 l0 8.36 l-17.24 0 l-0.08 0 z">
    </path>
  </g>
</svg>